<mxfile host="app.diagrams.net" modified="2024-06-30T12:31:35.600Z" agent="Mozilla/5.0 (Windows NT 10.0; Win64; x64) AppleWebKit/537.36 (KHTML, like Gecko) Chrome/126.0.0.0 Safari/537.36 Edg/126.0.0.0" etag="PLmQ2ytogoyYxofxZOe4" version="24.6.4" type="github">
  <diagram name="第 1 页" id="MHnpthAXy_TI3WhBnuRC">
    <mxGraphModel dx="2279" dy="2020" grid="1" gridSize="10" guides="1" tooltips="1" connect="1" arrows="1" fold="1" page="1" pageScale="1" pageWidth="850" pageHeight="1100" math="0" shadow="0">
      <root>
        <mxCell id="0" />
        <mxCell id="1" parent="0" />
        <mxCell id="ZPhuPFuWfSwlEHbUPXpi-8" value="3.0" style="swimlane;fontStyle=0;childLayout=stackLayout;horizontal=1;startSize=20;fillColor=#ffffff;horizontalStack=0;resizeParent=1;resizeParentMax=0;resizeLast=0;collapsible=0;marginBottom=0;swimlaneFillColor=#ffffff;" vertex="1" parent="1">
          <mxGeometry x="460" y="350" width="140" height="50" as="geometry" />
        </mxCell>
        <mxCell id="ZPhuPFuWfSwlEHbUPXpi-21" value="Food Delivery Service" style="text;html=1;align=center;verticalAlign=middle;resizable=0;points=[];autosize=1;strokeColor=none;fillColor=none;" vertex="1" parent="ZPhuPFuWfSwlEHbUPXpi-8">
          <mxGeometry y="20" width="140" height="30" as="geometry" />
        </mxCell>
        <mxCell id="ZPhuPFuWfSwlEHbUPXpi-14" style="edgeStyle=orthogonalEdgeStyle;rounded=0;orthogonalLoop=1;jettySize=auto;html=1;exitX=1.005;exitY=0.43;exitDx=0;exitDy=0;exitPerimeter=0;entryX=0;entryY=0.25;entryDx=0;entryDy=0;" edge="1" parent="1" source="ZPhuPFuWfSwlEHbUPXpi-10" target="ZPhuPFuWfSwlEHbUPXpi-8">
          <mxGeometry relative="1" as="geometry">
            <Array as="points">
              <mxPoint x="332" y="363" />
            </Array>
          </mxGeometry>
        </mxCell>
        <mxCell id="ZPhuPFuWfSwlEHbUPXpi-10" value="User" style="html=1;dashed=0;whiteSpace=wrap;shape=mxgraph.dfd.externalEntity" vertex="1" parent="1">
          <mxGeometry x="250" y="320" width="100" height="100" as="geometry" />
        </mxCell>
        <mxCell id="ZPhuPFuWfSwlEHbUPXpi-11" value="Id" style="autosize=1;part=1;resizable=0;strokeColor=inherit;fillColor=inherit;gradientColor=inherit;" vertex="1" parent="ZPhuPFuWfSwlEHbUPXpi-10">
          <mxGeometry width="20" height="20" relative="1" as="geometry">
            <mxPoint x="15" y="15" as="offset" />
          </mxGeometry>
        </mxCell>
        <mxCell id="ZPhuPFuWfSwlEHbUPXpi-15" value="Food order" style="text;html=1;align=center;verticalAlign=middle;resizable=0;points=[];autosize=1;strokeColor=none;fillColor=none;" vertex="1" parent="1">
          <mxGeometry x="370" y="340" width="80" height="30" as="geometry" />
        </mxCell>
        <mxCell id="ZPhuPFuWfSwlEHbUPXpi-16" style="edgeStyle=orthogonalEdgeStyle;rounded=0;orthogonalLoop=1;jettySize=auto;html=1;exitX=0;exitY=0.5;exitDx=0;exitDy=0;entryX=0;entryY=0;entryDx=100;entryDy=55;entryPerimeter=0;" edge="1" parent="1" source="ZPhuPFuWfSwlEHbUPXpi-8" target="ZPhuPFuWfSwlEHbUPXpi-10">
          <mxGeometry relative="1" as="geometry" />
        </mxCell>
        <mxCell id="ZPhuPFuWfSwlEHbUPXpi-20" value="Food order status" style="text;html=1;align=center;verticalAlign=middle;resizable=0;points=[];autosize=1;strokeColor=none;fillColor=none;" vertex="1" parent="1">
          <mxGeometry x="350" y="370" width="120" height="30" as="geometry" />
        </mxCell>
        <mxCell id="ZPhuPFuWfSwlEHbUPXpi-23" value="2.0" style="swimlane;fontStyle=0;childLayout=stackLayout;horizontal=1;startSize=20;fillColor=#ffffff;horizontalStack=0;resizeParent=1;resizeParentMax=0;resizeLast=0;collapsible=0;marginBottom=0;swimlaneFillColor=#ffffff;" vertex="1" parent="1">
          <mxGeometry x="10" y="345" width="130" height="50" as="geometry" />
        </mxCell>
        <mxCell id="ZPhuPFuWfSwlEHbUPXpi-24" value="Ride-Hailing Service" style="text;html=1;align=center;verticalAlign=middle;resizable=0;points=[];autosize=1;strokeColor=none;fillColor=none;" vertex="1" parent="ZPhuPFuWfSwlEHbUPXpi-23">
          <mxGeometry y="20" width="130" height="30" as="geometry" />
        </mxCell>
        <mxCell id="ZPhuPFuWfSwlEHbUPXpi-26" style="edgeStyle=orthogonalEdgeStyle;rounded=0;orthogonalLoop=1;jettySize=auto;html=1;exitX=0;exitY=0;exitDx=0;exitDy=45;exitPerimeter=0;entryX=0.987;entryY=-0.065;entryDx=0;entryDy=0;entryPerimeter=0;" edge="1" parent="1" source="ZPhuPFuWfSwlEHbUPXpi-10" target="ZPhuPFuWfSwlEHbUPXpi-24">
          <mxGeometry relative="1" as="geometry">
            <Array as="points">
              <mxPoint x="250" y="363" />
            </Array>
          </mxGeometry>
        </mxCell>
        <mxCell id="ZPhuPFuWfSwlEHbUPXpi-27" value="Ride order" style="text;html=1;align=center;verticalAlign=middle;resizable=0;points=[];autosize=1;strokeColor=none;fillColor=none;" vertex="1" parent="1">
          <mxGeometry x="150" y="340" width="80" height="30" as="geometry" />
        </mxCell>
        <mxCell id="ZPhuPFuWfSwlEHbUPXpi-29" style="edgeStyle=orthogonalEdgeStyle;rounded=0;orthogonalLoop=1;jettySize=auto;html=1;exitX=1;exitY=0.5;exitDx=0;exitDy=0;entryX=0.012;entryY=0.517;entryDx=0;entryDy=0;entryPerimeter=0;" edge="1" parent="1" source="ZPhuPFuWfSwlEHbUPXpi-23" target="ZPhuPFuWfSwlEHbUPXpi-10">
          <mxGeometry relative="1" as="geometry">
            <Array as="points">
              <mxPoint x="251" y="370" />
            </Array>
          </mxGeometry>
        </mxCell>
        <mxCell id="ZPhuPFuWfSwlEHbUPXpi-30" value="Ride order status" style="text;html=1;align=center;verticalAlign=middle;resizable=0;points=[];autosize=1;strokeColor=none;fillColor=none;" vertex="1" parent="1">
          <mxGeometry x="140" y="370" width="110" height="30" as="geometry" />
        </mxCell>
        <mxCell id="ZPhuPFuWfSwlEHbUPXpi-31" value="4.0" style="swimlane;fontStyle=0;childLayout=stackLayout;horizontal=1;startSize=20;fillColor=#ffffff;horizontalStack=0;resizeParent=1;resizeParentMax=0;resizeLast=0;collapsible=0;marginBottom=0;swimlaneFillColor=#ffffff;" vertex="1" parent="1">
          <mxGeometry x="240" y="550" width="140" height="50" as="geometry" />
        </mxCell>
        <mxCell id="ZPhuPFuWfSwlEHbUPXpi-34" value="Package Delivery Service" style="text;html=1;align=center;verticalAlign=middle;resizable=0;points=[];autosize=1;strokeColor=none;fillColor=none;" vertex="1" parent="ZPhuPFuWfSwlEHbUPXpi-31">
          <mxGeometry y="20" width="140" height="30" as="geometry" />
        </mxCell>
        <mxCell id="ZPhuPFuWfSwlEHbUPXpi-33" style="edgeStyle=orthogonalEdgeStyle;rounded=0;orthogonalLoop=1;jettySize=auto;html=1;exitX=0;exitY=0;exitDx=32.5;exitDy=100;exitPerimeter=0;" edge="1" parent="1" target="ZPhuPFuWfSwlEHbUPXpi-31">
          <mxGeometry relative="1" as="geometry">
            <mxPoint x="301.25" y="420" as="sourcePoint" />
            <mxPoint x="299" y="550" as="targetPoint" />
            <Array as="points">
              <mxPoint x="299" y="420" />
            </Array>
          </mxGeometry>
        </mxCell>
        <mxCell id="ZPhuPFuWfSwlEHbUPXpi-35" value="Delivery order" style="text;html=1;align=center;verticalAlign=middle;resizable=0;points=[];autosize=1;strokeColor=none;fillColor=none;rotation=270;" vertex="1" parent="1">
          <mxGeometry x="230" y="460" width="100" height="30" as="geometry" />
        </mxCell>
        <mxCell id="ZPhuPFuWfSwlEHbUPXpi-36" style="edgeStyle=orthogonalEdgeStyle;rounded=0;orthogonalLoop=1;jettySize=auto;html=1;exitX=0.5;exitY=0;exitDx=0;exitDy=0;entryX=0.591;entryY=1.006;entryDx=0;entryDy=0;entryPerimeter=0;" edge="1" parent="1" source="ZPhuPFuWfSwlEHbUPXpi-31" target="ZPhuPFuWfSwlEHbUPXpi-10">
          <mxGeometry relative="1" as="geometry" />
        </mxCell>
        <mxCell id="ZPhuPFuWfSwlEHbUPXpi-37" value="Delivery order status" style="text;html=1;align=center;verticalAlign=middle;resizable=0;points=[];autosize=1;strokeColor=none;fillColor=none;rotation=90;" vertex="1" parent="1">
          <mxGeometry x="260" y="470" width="130" height="30" as="geometry" />
        </mxCell>
        <mxCell id="ZPhuPFuWfSwlEHbUPXpi-38" value="Restaurant" style="html=1;dashed=0;whiteSpace=wrap;shape=mxgraph.dfd.externalEntity" vertex="1" parent="1">
          <mxGeometry x="740" y="325" width="100" height="100" as="geometry" />
        </mxCell>
        <mxCell id="ZPhuPFuWfSwlEHbUPXpi-39" value="Id" style="autosize=1;part=1;resizable=0;strokeColor=inherit;fillColor=inherit;gradientColor=inherit;" vertex="1" parent="ZPhuPFuWfSwlEHbUPXpi-38">
          <mxGeometry width="20" height="20" relative="1" as="geometry">
            <mxPoint x="15" y="15" as="offset" />
          </mxGeometry>
        </mxCell>
        <mxCell id="ZPhuPFuWfSwlEHbUPXpi-40" style="edgeStyle=orthogonalEdgeStyle;rounded=0;orthogonalLoop=1;jettySize=auto;html=1;exitX=1;exitY=0.25;exitDx=0;exitDy=0;entryX=-0.006;entryY=0.384;entryDx=0;entryDy=0;entryPerimeter=0;" edge="1" parent="1" source="ZPhuPFuWfSwlEHbUPXpi-8" target="ZPhuPFuWfSwlEHbUPXpi-38">
          <mxGeometry relative="1" as="geometry" />
        </mxCell>
        <mxCell id="ZPhuPFuWfSwlEHbUPXpi-41" style="edgeStyle=orthogonalEdgeStyle;rounded=0;orthogonalLoop=1;jettySize=auto;html=1;exitX=0;exitY=0;exitDx=0;exitDy=45;exitPerimeter=0;" edge="1" parent="1" source="ZPhuPFuWfSwlEHbUPXpi-38">
          <mxGeometry relative="1" as="geometry">
            <mxPoint x="600" y="375" as="targetPoint" />
            <Array as="points">
              <mxPoint x="710" y="375" />
              <mxPoint x="600" y="375" />
            </Array>
          </mxGeometry>
        </mxCell>
        <mxCell id="ZPhuPFuWfSwlEHbUPXpi-42" value="Food order details" style="text;html=1;align=center;verticalAlign=middle;resizable=0;points=[];autosize=1;strokeColor=none;fillColor=none;" vertex="1" parent="1">
          <mxGeometry x="600" y="340" width="120" height="30" as="geometry" />
        </mxCell>
        <mxCell id="ZPhuPFuWfSwlEHbUPXpi-43" value="Food order acceptance" style="text;html=1;align=center;verticalAlign=middle;resizable=0;points=[];autosize=1;strokeColor=none;fillColor=none;" vertex="1" parent="1">
          <mxGeometry x="600" y="370" width="150" height="30" as="geometry" />
        </mxCell>
        <mxCell id="ZPhuPFuWfSwlEHbUPXpi-48" style="edgeStyle=orthogonalEdgeStyle;rounded=0;orthogonalLoop=1;jettySize=auto;html=1;exitX=0.029;exitY=0.796;exitDx=0;exitDy=0;exitPerimeter=0;entryX=0.25;entryY=0;entryDx=0;entryDy=0;" edge="1" parent="1" source="ZPhuPFuWfSwlEHbUPXpi-44" target="ZPhuPFuWfSwlEHbUPXpi-23">
          <mxGeometry relative="1" as="geometry">
            <mxPoint x="120" y="340" as="targetPoint" />
            <Array as="points">
              <mxPoint x="43" y="80" />
              <mxPoint x="43" y="310" />
            </Array>
          </mxGeometry>
        </mxCell>
        <mxCell id="ZPhuPFuWfSwlEHbUPXpi-118" style="edgeStyle=orthogonalEdgeStyle;rounded=0;orthogonalLoop=1;jettySize=auto;html=1;exitX=0;exitY=0;exitDx=100;exitDy=77.5;exitPerimeter=0;" edge="1" parent="1" source="ZPhuPFuWfSwlEHbUPXpi-44">
          <mxGeometry relative="1" as="geometry">
            <mxPoint x="580" y="400" as="targetPoint" />
            <Array as="points">
              <mxPoint x="880" y="77" />
              <mxPoint x="880" y="430" />
              <mxPoint x="580" y="430" />
            </Array>
          </mxGeometry>
        </mxCell>
        <mxCell id="ZPhuPFuWfSwlEHbUPXpi-44" value="Driver" style="html=1;dashed=0;whiteSpace=wrap;shape=mxgraph.dfd.externalEntity" vertex="1" parent="1">
          <mxGeometry x="252.5" width="100" height="100" as="geometry" />
        </mxCell>
        <mxCell id="ZPhuPFuWfSwlEHbUPXpi-45" value="Id" style="autosize=1;part=1;resizable=0;strokeColor=inherit;fillColor=inherit;gradientColor=inherit;" vertex="1" parent="ZPhuPFuWfSwlEHbUPXpi-44">
          <mxGeometry width="20" height="20" relative="1" as="geometry">
            <mxPoint x="15" y="15" as="offset" />
          </mxGeometry>
        </mxCell>
        <mxCell id="ZPhuPFuWfSwlEHbUPXpi-46" style="edgeStyle=orthogonalEdgeStyle;rounded=0;orthogonalLoop=1;jettySize=auto;html=1;entryX=0;entryY=0;entryDx=0;entryDy=67.5;entryPerimeter=0;exitX=0.153;exitY=0.022;exitDx=0;exitDy=0;exitPerimeter=0;" edge="1" parent="1" source="ZPhuPFuWfSwlEHbUPXpi-23" target="ZPhuPFuWfSwlEHbUPXpi-44">
          <mxGeometry relative="1" as="geometry">
            <mxPoint x="30" y="340" as="sourcePoint" />
            <Array as="points">
              <mxPoint x="30" y="60" />
              <mxPoint x="252" y="60" />
            </Array>
          </mxGeometry>
        </mxCell>
        <mxCell id="ZPhuPFuWfSwlEHbUPXpi-47" value="Ride order details" style="text;html=1;align=center;verticalAlign=middle;resizable=0;points=[];autosize=1;strokeColor=none;fillColor=none;" vertex="1" parent="1">
          <mxGeometry x="50" y="35" width="120" height="30" as="geometry" />
        </mxCell>
        <mxCell id="ZPhuPFuWfSwlEHbUPXpi-49" value="Ride order acceptance" style="text;html=1;align=center;verticalAlign=middle;resizable=0;points=[];autosize=1;strokeColor=none;fillColor=none;" vertex="1" parent="1">
          <mxGeometry x="50" y="80" width="140" height="30" as="geometry" />
        </mxCell>
        <mxCell id="ZPhuPFuWfSwlEHbUPXpi-51" value="Food order acceptance" style="text;html=1;align=center;verticalAlign=middle;resizable=0;points=[];autosize=1;strokeColor=none;fillColor=none;" vertex="1" parent="1">
          <mxGeometry x="350" y="70" width="150" height="30" as="geometry" />
        </mxCell>
        <mxCell id="ZPhuPFuWfSwlEHbUPXpi-53" value="Food order details" style="text;html=1;align=center;verticalAlign=middle;resizable=0;points=[];autosize=1;strokeColor=none;fillColor=none;" vertex="1" parent="1">
          <mxGeometry x="360" y="35" width="120" height="30" as="geometry" />
        </mxCell>
        <mxCell id="ZPhuPFuWfSwlEHbUPXpi-55" style="edgeStyle=orthogonalEdgeStyle;rounded=0;orthogonalLoop=1;jettySize=auto;html=1;exitX=0;exitY=0.25;exitDx=0;exitDy=0;entryX=0;entryY=0;entryDx=0;entryDy=22.5;entryPerimeter=0;" edge="1" parent="1" source="ZPhuPFuWfSwlEHbUPXpi-31" target="ZPhuPFuWfSwlEHbUPXpi-44">
          <mxGeometry relative="1" as="geometry">
            <Array as="points">
              <mxPoint x="-10" y="562" />
              <mxPoint x="-10" y="22" />
            </Array>
          </mxGeometry>
        </mxCell>
        <mxCell id="ZPhuPFuWfSwlEHbUPXpi-56" value="Delivery order details" style="text;html=1;align=center;verticalAlign=middle;resizable=0;points=[];autosize=1;strokeColor=none;fillColor=none;" vertex="1" parent="1">
          <mxGeometry x="60" y="535" width="140" height="30" as="geometry" />
        </mxCell>
        <mxCell id="ZPhuPFuWfSwlEHbUPXpi-57" style="edgeStyle=orthogonalEdgeStyle;rounded=0;orthogonalLoop=1;jettySize=auto;html=1;exitX=0;exitY=0;exitDx=0;exitDy=0;exitPerimeter=0;" edge="1" parent="1" source="ZPhuPFuWfSwlEHbUPXpi-44" target="ZPhuPFuWfSwlEHbUPXpi-34">
          <mxGeometry relative="1" as="geometry">
            <mxPoint x="210" y="10" as="sourcePoint" />
            <Array as="points">
              <mxPoint x="253" y="10" />
              <mxPoint x="-40" y="10" />
              <mxPoint x="-40" y="582" />
            </Array>
          </mxGeometry>
        </mxCell>
        <mxCell id="ZPhuPFuWfSwlEHbUPXpi-58" value="Delivery acceptance" style="text;html=1;align=center;verticalAlign=middle;resizable=0;points=[];autosize=1;strokeColor=none;fillColor=none;" vertex="1" parent="1">
          <mxGeometry x="65" y="580" width="130" height="30" as="geometry" />
        </mxCell>
        <mxCell id="ZPhuPFuWfSwlEHbUPXpi-59" value="Business" style="html=1;dashed=0;whiteSpace=wrap;shape=mxgraph.dfd.externalEntity" vertex="1" parent="1">
          <mxGeometry x="540" y="520" width="100" height="100" as="geometry" />
        </mxCell>
        <mxCell id="ZPhuPFuWfSwlEHbUPXpi-60" value="Id" style="autosize=1;part=1;resizable=0;strokeColor=inherit;fillColor=inherit;gradientColor=inherit;" vertex="1" parent="ZPhuPFuWfSwlEHbUPXpi-59">
          <mxGeometry width="20" height="20" relative="1" as="geometry">
            <mxPoint x="15" y="15" as="offset" />
          </mxGeometry>
        </mxCell>
        <mxCell id="ZPhuPFuWfSwlEHbUPXpi-61" style="edgeStyle=orthogonalEdgeStyle;rounded=0;orthogonalLoop=1;jettySize=auto;html=1;exitX=1;exitY=0.25;exitDx=0;exitDy=0;entryX=0;entryY=0;entryDx=0;entryDy=45;entryPerimeter=0;" edge="1" parent="1" source="ZPhuPFuWfSwlEHbUPXpi-31" target="ZPhuPFuWfSwlEHbUPXpi-59">
          <mxGeometry relative="1" as="geometry">
            <Array as="points">
              <mxPoint x="380" y="565" />
            </Array>
          </mxGeometry>
        </mxCell>
        <mxCell id="ZPhuPFuWfSwlEHbUPXpi-62" value="Delivery order details" style="text;html=1;align=center;verticalAlign=middle;resizable=0;points=[];autosize=1;strokeColor=none;fillColor=none;" vertex="1" parent="1">
          <mxGeometry x="390" y="540" width="140" height="30" as="geometry" />
        </mxCell>
        <mxCell id="ZPhuPFuWfSwlEHbUPXpi-63" style="edgeStyle=orthogonalEdgeStyle;rounded=0;orthogonalLoop=1;jettySize=auto;html=1;exitX=-0.003;exitY=0.574;exitDx=0;exitDy=0;exitPerimeter=0;entryX=0.986;entryY=0.264;entryDx=0;entryDy=0;entryPerimeter=0;" edge="1" parent="1" source="ZPhuPFuWfSwlEHbUPXpi-59" target="ZPhuPFuWfSwlEHbUPXpi-34">
          <mxGeometry relative="1" as="geometry">
            <Array as="points">
              <mxPoint x="440" y="577" />
            </Array>
          </mxGeometry>
        </mxCell>
        <mxCell id="ZPhuPFuWfSwlEHbUPXpi-64" value="Delivery order acceptance" style="text;html=1;align=center;verticalAlign=middle;resizable=0;points=[];autosize=1;strokeColor=none;fillColor=none;" vertex="1" parent="1">
          <mxGeometry x="380" y="570" width="160" height="30" as="geometry" />
        </mxCell>
        <mxCell id="ZPhuPFuWfSwlEHbUPXpi-66" value="D3" style="html=1;dashed=0;whiteSpace=wrap;shape=mxgraph.dfd.dataStoreID;align=left;spacingLeft=3;points=[[0,0],[0.5,0],[1,0],[0,0.5],[1,0.5],[0,1],[0.5,1],[1,1]];" vertex="1" parent="1">
          <mxGeometry x="460" y="270" width="140" height="30" as="geometry" />
        </mxCell>
        <mxCell id="ZPhuPFuWfSwlEHbUPXpi-67" value="Food order data" style="text;html=1;align=center;verticalAlign=middle;resizable=0;points=[];autosize=1;strokeColor=none;fillColor=none;" vertex="1" parent="1">
          <mxGeometry x="490" y="270" width="110" height="30" as="geometry" />
        </mxCell>
        <mxCell id="ZPhuPFuWfSwlEHbUPXpi-69" value="Update food data" style="text;html=1;align=center;verticalAlign=middle;resizable=0;points=[];autosize=1;strokeColor=none;fillColor=none;" vertex="1" parent="1">
          <mxGeometry x="480" y="310" width="120" height="30" as="geometry" />
        </mxCell>
        <mxCell id="ZPhuPFuWfSwlEHbUPXpi-80" style="edgeStyle=orthogonalEdgeStyle;rounded=0;orthogonalLoop=1;jettySize=auto;html=1;exitX=1.008;exitY=0.168;exitDx=0;exitDy=0;entryX=0;entryY=0.5;entryDx=0;entryDy=0;exitPerimeter=0;" edge="1" parent="1" source="ZPhuPFuWfSwlEHbUPXpi-71" target="ZPhuPFuWfSwlEHbUPXpi-79">
          <mxGeometry relative="1" as="geometry">
            <Array as="points" />
          </mxGeometry>
        </mxCell>
        <mxCell id="ZPhuPFuWfSwlEHbUPXpi-84" style="edgeStyle=orthogonalEdgeStyle;rounded=0;orthogonalLoop=1;jettySize=auto;html=1;exitX=1;exitY=0.25;exitDx=0;exitDy=0;entryX=0;entryY=0;entryDx=0;entryDy=0;" edge="1" parent="1" source="ZPhuPFuWfSwlEHbUPXpi-70" target="ZPhuPFuWfSwlEHbUPXpi-79">
          <mxGeometry relative="1" as="geometry">
            <Array as="points">
              <mxPoint x="390" y="150" />
            </Array>
          </mxGeometry>
        </mxCell>
        <mxCell id="ZPhuPFuWfSwlEHbUPXpi-70" value="1.0" style="swimlane;fontStyle=0;childLayout=stackLayout;horizontal=1;startSize=20;fillColor=#ffffff;horizontalStack=0;resizeParent=1;resizeParentMax=0;resizeLast=0;collapsible=0;marginBottom=0;swimlaneFillColor=#ffffff;" vertex="1" parent="1">
          <mxGeometry x="250" y="140" width="140" height="50" as="geometry" />
        </mxCell>
        <mxCell id="ZPhuPFuWfSwlEHbUPXpi-71" value="User management" style="text;html=1;align=center;verticalAlign=middle;resizable=0;points=[];autosize=1;strokeColor=none;fillColor=none;" vertex="1" parent="ZPhuPFuWfSwlEHbUPXpi-70">
          <mxGeometry y="20" width="140" height="30" as="geometry" />
        </mxCell>
        <mxCell id="ZPhuPFuWfSwlEHbUPXpi-72" style="edgeStyle=orthogonalEdgeStyle;rounded=0;orthogonalLoop=1;jettySize=auto;html=1;exitX=0.344;exitY=-0.031;exitDx=0;exitDy=0;exitPerimeter=0;entryX=0.25;entryY=1;entryDx=0;entryDy=0;" edge="1" parent="1" source="ZPhuPFuWfSwlEHbUPXpi-10" target="ZPhuPFuWfSwlEHbUPXpi-70">
          <mxGeometry relative="1" as="geometry">
            <mxPoint x="273" y="190" as="targetPoint" />
          </mxGeometry>
        </mxCell>
        <mxCell id="ZPhuPFuWfSwlEHbUPXpi-73" value="User registration" style="text;html=1;align=center;verticalAlign=middle;resizable=0;points=[];autosize=1;strokeColor=none;fillColor=none;rotation=270;" vertex="1" parent="1">
          <mxGeometry x="220" y="240" width="110" height="30" as="geometry" />
        </mxCell>
        <mxCell id="ZPhuPFuWfSwlEHbUPXpi-74" style="edgeStyle=orthogonalEdgeStyle;rounded=0;orthogonalLoop=1;jettySize=auto;html=1;entryX=0.506;entryY=0;entryDx=0;entryDy=0;entryPerimeter=0;" edge="1" parent="1" target="ZPhuPFuWfSwlEHbUPXpi-10">
          <mxGeometry relative="1" as="geometry">
            <mxPoint x="300" y="190" as="sourcePoint" />
          </mxGeometry>
        </mxCell>
        <mxCell id="ZPhuPFuWfSwlEHbUPXpi-75" value="Registration result" style="text;html=1;align=center;verticalAlign=middle;resizable=0;points=[];autosize=1;strokeColor=none;fillColor=none;rotation=90;" vertex="1" parent="1">
          <mxGeometry x="252.5" y="248" width="120" height="30" as="geometry" />
        </mxCell>
        <mxCell id="ZPhuPFuWfSwlEHbUPXpi-77" style="edgeStyle=orthogonalEdgeStyle;rounded=0;orthogonalLoop=1;jettySize=auto;html=1;exitX=0;exitY=0;exitDx=0;exitDy=0;exitPerimeter=0;entryX=-0.003;entryY=0.217;entryDx=0;entryDy=0;entryPerimeter=0;" edge="1" parent="1" source="ZPhuPFuWfSwlEHbUPXpi-10" target="ZPhuPFuWfSwlEHbUPXpi-71">
          <mxGeometry relative="1" as="geometry">
            <Array as="points">
              <mxPoint x="230" y="320" />
              <mxPoint x="230" y="167" />
            </Array>
          </mxGeometry>
        </mxCell>
        <mxCell id="ZPhuPFuWfSwlEHbUPXpi-78" value="Feedback" style="text;html=1;align=center;verticalAlign=middle;resizable=0;points=[];autosize=1;strokeColor=none;fillColor=none;rotation=270;" vertex="1" parent="1">
          <mxGeometry x="172.5" y="230" width="80" height="30" as="geometry" />
        </mxCell>
        <mxCell id="ZPhuPFuWfSwlEHbUPXpi-79" value="D1" style="html=1;dashed=0;whiteSpace=wrap;shape=mxgraph.dfd.dataStoreID;align=left;spacingLeft=3;points=[[0,0],[0.5,0],[1,0],[0,0.5],[1,0.5],[0,1],[0.5,1],[1,1]];" vertex="1" parent="1">
          <mxGeometry x="510" y="150" width="100" height="30" as="geometry" />
        </mxCell>
        <mxCell id="ZPhuPFuWfSwlEHbUPXpi-81" value="User&#39;s feedback" style="text;html=1;align=center;verticalAlign=middle;resizable=0;points=[];autosize=1;strokeColor=none;fillColor=none;" vertex="1" parent="1">
          <mxGeometry x="390" y="120" width="110" height="30" as="geometry" />
        </mxCell>
        <mxCell id="ZPhuPFuWfSwlEHbUPXpi-82" style="edgeStyle=orthogonalEdgeStyle;rounded=0;orthogonalLoop=1;jettySize=auto;html=1;exitX=0;exitY=0.5;exitDx=0;exitDy=0;" edge="1" parent="1" source="ZPhuPFuWfSwlEHbUPXpi-79">
          <mxGeometry relative="1" as="geometry">
            <mxPoint x="390" y="165" as="targetPoint" />
            <Array as="points">
              <mxPoint x="390" y="165" />
            </Array>
          </mxGeometry>
        </mxCell>
        <mxCell id="ZPhuPFuWfSwlEHbUPXpi-83" value="User&#39;s information" style="text;html=1;align=center;verticalAlign=middle;resizable=0;points=[];autosize=1;strokeColor=none;fillColor=none;" vertex="1" parent="1">
          <mxGeometry x="390" y="160" width="120" height="30" as="geometry" />
        </mxCell>
        <mxCell id="ZPhuPFuWfSwlEHbUPXpi-85" value="User data" style="text;html=1;align=center;verticalAlign=middle;resizable=0;points=[];autosize=1;strokeColor=none;fillColor=none;" vertex="1" parent="1">
          <mxGeometry x="530" y="150" width="80" height="30" as="geometry" />
        </mxCell>
        <mxCell id="ZPhuPFuWfSwlEHbUPXpi-91" style="edgeStyle=orthogonalEdgeStyle;rounded=0;orthogonalLoop=1;jettySize=auto;html=1;entryX=0;entryY=0.25;entryDx=0;entryDy=0;" edge="1" parent="1" target="ZPhuPFuWfSwlEHbUPXpi-70">
          <mxGeometry relative="1" as="geometry">
            <mxPoint x="150" y="155" as="sourcePoint" />
            <Array as="points">
              <mxPoint x="150" y="153" />
              <mxPoint x="200" y="153" />
            </Array>
          </mxGeometry>
        </mxCell>
        <mxCell id="ZPhuPFuWfSwlEHbUPXpi-86" value="D2" style="html=1;dashed=0;whiteSpace=wrap;shape=mxgraph.dfd.dataStoreID;align=left;spacingLeft=3;points=[[0,0],[0.5,0],[1,0],[0,0.5],[1,0.5],[0,1],[0.5,1],[1,1]];" vertex="1" parent="1">
          <mxGeometry x="50" y="140" width="100" height="30" as="geometry" />
        </mxCell>
        <mxCell id="ZPhuPFuWfSwlEHbUPXpi-87" value="Ride data" style="text;html=1;align=center;verticalAlign=middle;resizable=0;points=[];autosize=1;strokeColor=none;fillColor=none;" vertex="1" parent="1">
          <mxGeometry x="75" y="140" width="70" height="30" as="geometry" />
        </mxCell>
        <mxCell id="ZPhuPFuWfSwlEHbUPXpi-88" style="edgeStyle=orthogonalEdgeStyle;rounded=0;orthogonalLoop=1;jettySize=auto;html=1;exitX=0.5;exitY=0;exitDx=0;exitDy=0;entryX=0.24;entryY=1.004;entryDx=0;entryDy=0;entryPerimeter=0;" edge="1" parent="1" source="ZPhuPFuWfSwlEHbUPXpi-23" target="ZPhuPFuWfSwlEHbUPXpi-86">
          <mxGeometry relative="1" as="geometry" />
        </mxCell>
        <mxCell id="ZPhuPFuWfSwlEHbUPXpi-89" value="Update ride data" style="text;html=1;align=center;verticalAlign=middle;resizable=0;points=[];autosize=1;strokeColor=none;fillColor=none;rotation=90;" vertex="1" parent="1">
          <mxGeometry x="40" y="248" width="110" height="30" as="geometry" />
        </mxCell>
        <mxCell id="ZPhuPFuWfSwlEHbUPXpi-92" value="Update ride data" style="text;html=1;align=center;verticalAlign=middle;resizable=0;points=[];autosize=1;strokeColor=none;fillColor=none;" vertex="1" parent="1">
          <mxGeometry x="140" y="130" width="110" height="30" as="geometry" />
        </mxCell>
        <mxCell id="ZPhuPFuWfSwlEHbUPXpi-94" value="Update food data" style="text;html=1;align=center;verticalAlign=middle;resizable=0;points=[];autosize=1;strokeColor=none;fillColor=none;" vertex="1" parent="1">
          <mxGeometry x="340" y="260" width="120" height="30" as="geometry" />
        </mxCell>
        <mxCell id="ZPhuPFuWfSwlEHbUPXpi-95" style="edgeStyle=orthogonalEdgeStyle;rounded=0;orthogonalLoop=1;jettySize=auto;html=1;entryX=0.015;entryY=0.908;entryDx=0;entryDy=0;entryPerimeter=0;" edge="1" parent="1" target="ZPhuPFuWfSwlEHbUPXpi-67">
          <mxGeometry relative="1" as="geometry">
            <mxPoint x="492" y="350" as="sourcePoint" />
            <Array as="points">
              <mxPoint x="492" y="350" />
              <mxPoint x="492" y="325" />
            </Array>
          </mxGeometry>
        </mxCell>
        <mxCell id="ZPhuPFuWfSwlEHbUPXpi-96" style="edgeStyle=orthogonalEdgeStyle;rounded=0;orthogonalLoop=1;jettySize=auto;html=1;exitX=0;exitY=0.5;exitDx=0;exitDy=0;" edge="1" parent="1" source="ZPhuPFuWfSwlEHbUPXpi-66">
          <mxGeometry relative="1" as="geometry">
            <mxPoint x="330" y="190" as="targetPoint" />
          </mxGeometry>
        </mxCell>
        <mxCell id="ZPhuPFuWfSwlEHbUPXpi-99" style="edgeStyle=orthogonalEdgeStyle;rounded=0;orthogonalLoop=1;jettySize=auto;html=1;entryX=0.44;entryY=0.98;entryDx=0;entryDy=0;entryPerimeter=0;" edge="1" parent="1" source="ZPhuPFuWfSwlEHbUPXpi-102" target="ZPhuPFuWfSwlEHbUPXpi-34">
          <mxGeometry relative="1" as="geometry">
            <mxPoint x="301" y="749" as="sourcePoint" />
            <Array as="points">
              <mxPoint x="302" y="680" />
            </Array>
          </mxGeometry>
        </mxCell>
        <mxCell id="ZPhuPFuWfSwlEHbUPXpi-98" value="D4" style="html=1;dashed=0;whiteSpace=wrap;shape=mxgraph.dfd.dataStoreID;align=left;spacingLeft=3;points=[[0,0],[0.5,0],[1,0],[0,0.5],[1,0.5],[0,1],[0.5,1],[1,1]];" vertex="1" parent="1">
          <mxGeometry x="250" y="760" width="117.5" height="30" as="geometry" />
        </mxCell>
        <mxCell id="ZPhuPFuWfSwlEHbUPXpi-100" value="Update delivery data" style="text;html=1;align=center;verticalAlign=middle;resizable=0;points=[];autosize=1;strokeColor=none;fillColor=none;rotation=270;" vertex="1" parent="1">
          <mxGeometry x="220" y="670" width="130" height="30" as="geometry" />
        </mxCell>
        <mxCell id="ZPhuPFuWfSwlEHbUPXpi-102" value="Delivery data" style="text;html=1;align=center;verticalAlign=middle;resizable=0;points=[];autosize=1;strokeColor=none;fillColor=none;" vertex="1" parent="1">
          <mxGeometry x="280" y="760" width="90" height="30" as="geometry" />
        </mxCell>
        <mxCell id="ZPhuPFuWfSwlEHbUPXpi-105" value="Update delivery data" style="text;html=1;align=center;verticalAlign=middle;resizable=0;points=[];autosize=1;strokeColor=none;fillColor=none;rotation=90;" vertex="1" parent="1">
          <mxGeometry x="282.5" y="680" width="130" height="30" as="geometry" />
        </mxCell>
        <mxCell id="ZPhuPFuWfSwlEHbUPXpi-106" value="5.0" style="swimlane;fontStyle=0;childLayout=stackLayout;horizontal=1;startSize=20;fillColor=#ffffff;horizontalStack=0;resizeParent=1;resizeParentMax=0;resizeLast=0;collapsible=0;marginBottom=0;swimlaneFillColor=#ffffff;" vertex="1" parent="1">
          <mxGeometry x="970" y="350" width="100" height="50" as="geometry" />
        </mxCell>
        <mxCell id="ZPhuPFuWfSwlEHbUPXpi-111" value="Payment System" style="text;html=1;align=center;verticalAlign=middle;resizable=0;points=[];autosize=1;strokeColor=none;fillColor=none;" vertex="1" parent="ZPhuPFuWfSwlEHbUPXpi-106">
          <mxGeometry y="20" width="100" height="30" as="geometry" />
        </mxCell>
        <mxCell id="ZPhuPFuWfSwlEHbUPXpi-110" style="edgeStyle=orthogonalEdgeStyle;rounded=0;orthogonalLoop=1;jettySize=auto;html=1;exitX=0.5;exitY=0;exitDx=0;exitDy=0;entryX=0.996;entryY=0.202;entryDx=0;entryDy=0;entryPerimeter=0;" edge="1" parent="1" source="ZPhuPFuWfSwlEHbUPXpi-106" target="ZPhuPFuWfSwlEHbUPXpi-44">
          <mxGeometry relative="1" as="geometry" />
        </mxCell>
        <mxCell id="ZPhuPFuWfSwlEHbUPXpi-112" value="Payment to driver" style="text;html=1;align=center;verticalAlign=middle;resizable=0;points=[];autosize=1;strokeColor=none;fillColor=none;rotation=90;" vertex="1" parent="1">
          <mxGeometry x="980" y="270" width="120" height="30" as="geometry" />
        </mxCell>
        <mxCell id="ZPhuPFuWfSwlEHbUPXpi-116" style="edgeStyle=orthogonalEdgeStyle;rounded=0;orthogonalLoop=1;jettySize=auto;html=1;exitX=1;exitY=1;exitDx=0;exitDy=0;exitPerimeter=0;entryX=0.55;entryY=1.114;entryDx=0;entryDy=0;entryPerimeter=0;" edge="1" parent="1" source="ZPhuPFuWfSwlEHbUPXpi-10" target="ZPhuPFuWfSwlEHbUPXpi-111">
          <mxGeometry relative="1" as="geometry">
            <Array as="points">
              <mxPoint x="350" y="470" />
              <mxPoint x="1025" y="470" />
            </Array>
          </mxGeometry>
        </mxCell>
        <mxCell id="ZPhuPFuWfSwlEHbUPXpi-117" style="edgeStyle=orthogonalEdgeStyle;rounded=0;orthogonalLoop=1;jettySize=auto;html=1;exitX=0.75;exitY=1;exitDx=0;exitDy=0;" edge="1" parent="1" source="ZPhuPFuWfSwlEHbUPXpi-8" target="ZPhuPFuWfSwlEHbUPXpi-44">
          <mxGeometry relative="1" as="geometry">
            <mxPoint x="370" y="55" as="targetPoint" />
            <Array as="points">
              <mxPoint x="565" y="440" />
              <mxPoint x="900" y="440" />
              <mxPoint x="900" y="60" />
            </Array>
          </mxGeometry>
        </mxCell>
        <mxCell id="ZPhuPFuWfSwlEHbUPXpi-121" value="D5" style="html=1;dashed=0;whiteSpace=wrap;shape=mxgraph.dfd.dataStoreID;align=left;spacingLeft=3;points=[[0,0],[0.5,0],[1,0],[0,0.5],[1,0.5],[0,1],[0.5,1],[1,1]];" vertex="1" parent="1">
          <mxGeometry x="690" y="218" width="120" height="30" as="geometry" />
        </mxCell>
        <mxCell id="ZPhuPFuWfSwlEHbUPXpi-122" value="Payment data" style="text;html=1;align=center;verticalAlign=middle;resizable=0;points=[];autosize=1;strokeColor=none;fillColor=none;" vertex="1" parent="1">
          <mxGeometry x="720" y="218" width="100" height="30" as="geometry" />
        </mxCell>
        <mxCell id="ZPhuPFuWfSwlEHbUPXpi-123" style="edgeStyle=orthogonalEdgeStyle;rounded=0;orthogonalLoop=1;jettySize=auto;html=1;" edge="1" parent="1" target="ZPhuPFuWfSwlEHbUPXpi-122">
          <mxGeometry relative="1" as="geometry">
            <mxPoint x="1000" y="350" as="sourcePoint" />
            <Array as="points">
              <mxPoint x="1000" y="200" />
              <mxPoint x="770" y="200" />
            </Array>
          </mxGeometry>
        </mxCell>
        <mxCell id="ZPhuPFuWfSwlEHbUPXpi-124" style="edgeStyle=orthogonalEdgeStyle;rounded=0;orthogonalLoop=1;jettySize=auto;html=1;entryX=0.702;entryY=1.055;entryDx=0;entryDy=0;entryPerimeter=0;" edge="1" parent="1" source="ZPhuPFuWfSwlEHbUPXpi-121" target="ZPhuPFuWfSwlEHbUPXpi-71">
          <mxGeometry relative="1" as="geometry" />
        </mxCell>
        <mxCell id="ZPhuPFuWfSwlEHbUPXpi-126" value="Update payment data" style="text;html=1;align=center;verticalAlign=middle;resizable=0;points=[];autosize=1;strokeColor=none;fillColor=none;" vertex="1" parent="1">
          <mxGeometry x="470" y="210" width="140" height="30" as="geometry" />
        </mxCell>
        <mxCell id="ZPhuPFuWfSwlEHbUPXpi-127" value="Update payment data" style="text;html=1;align=center;verticalAlign=middle;resizable=0;points=[];autosize=1;strokeColor=none;fillColor=none;rotation=270;" vertex="1" parent="1">
          <mxGeometry x="910" y="260" width="140" height="30" as="geometry" />
        </mxCell>
        <mxCell id="ZPhuPFuWfSwlEHbUPXpi-132" style="edgeStyle=orthogonalEdgeStyle;rounded=0;orthogonalLoop=1;jettySize=auto;html=1;exitX=0;exitY=0;exitDx=100;exitDy=32.5;exitPerimeter=0;entryX=0.777;entryY=1.062;entryDx=0;entryDy=0;entryPerimeter=0;" edge="1" parent="1" source="ZPhuPFuWfSwlEHbUPXpi-128" target="ZPhuPFuWfSwlEHbUPXpi-111">
          <mxGeometry relative="1" as="geometry">
            <mxPoint x="1050" y="410" as="targetPoint" />
          </mxGeometry>
        </mxCell>
        <mxCell id="ZPhuPFuWfSwlEHbUPXpi-128" value="Financial Institution" style="html=1;dashed=0;whiteSpace=wrap;shape=mxgraph.dfd.externalEntity" vertex="1" parent="1">
          <mxGeometry x="780" y="520" width="100" height="100" as="geometry" />
        </mxCell>
        <mxCell id="ZPhuPFuWfSwlEHbUPXpi-129" value="Id" style="autosize=1;part=1;resizable=0;strokeColor=inherit;fillColor=inherit;gradientColor=inherit;" vertex="1" parent="ZPhuPFuWfSwlEHbUPXpi-128">
          <mxGeometry width="20" height="20" relative="1" as="geometry">
            <mxPoint x="15" y="15" as="offset" />
          </mxGeometry>
        </mxCell>
        <mxCell id="ZPhuPFuWfSwlEHbUPXpi-130" value="Payment" style="text;html=1;align=center;verticalAlign=middle;resizable=0;points=[];autosize=1;strokeColor=none;fillColor=none;" vertex="1" parent="1">
          <mxGeometry x="380" y="440" width="70" height="30" as="geometry" />
        </mxCell>
        <mxCell id="ZPhuPFuWfSwlEHbUPXpi-131" style="edgeStyle=orthogonalEdgeStyle;rounded=0;orthogonalLoop=1;jettySize=auto;html=1;exitX=0;exitY=0;exitDx=22.5;exitDy=0;exitPerimeter=0;entryX=0.166;entryY=0.11;entryDx=0;entryDy=0;entryPerimeter=0;" edge="1" parent="1" source="ZPhuPFuWfSwlEHbUPXpi-128" target="ZPhuPFuWfSwlEHbUPXpi-128">
          <mxGeometry relative="1" as="geometry" />
        </mxCell>
        <mxCell id="ZPhuPFuWfSwlEHbUPXpi-133" style="edgeStyle=orthogonalEdgeStyle;rounded=0;orthogonalLoop=1;jettySize=auto;html=1;exitX=0.911;exitY=1.036;exitDx=0;exitDy=0;entryX=0;entryY=0;entryDx=100;entryDy=55;entryPerimeter=0;exitPerimeter=0;" edge="1" parent="1" source="ZPhuPFuWfSwlEHbUPXpi-111" target="ZPhuPFuWfSwlEHbUPXpi-128">
          <mxGeometry relative="1" as="geometry">
            <Array as="points">
              <mxPoint x="1061" y="401" />
              <mxPoint x="1061" y="575" />
            </Array>
          </mxGeometry>
        </mxCell>
        <mxCell id="ZPhuPFuWfSwlEHbUPXpi-134" value="Payment processing request" style="text;html=1;align=center;verticalAlign=middle;resizable=0;points=[];autosize=1;strokeColor=none;fillColor=none;" vertex="1" parent="1">
          <mxGeometry x="880" y="570" width="180" height="30" as="geometry" />
        </mxCell>
        <mxCell id="ZPhuPFuWfSwlEHbUPXpi-135" value="Receipt with transaction ID" style="text;html=1;align=center;verticalAlign=middle;resizable=0;points=[];autosize=1;strokeColor=none;fillColor=none;" vertex="1" parent="1">
          <mxGeometry x="880" y="520" width="170" height="30" as="geometry" />
        </mxCell>
      </root>
    </mxGraphModel>
  </diagram>
</mxfile>
